<svg width="24" height="24" viewBox="0 0 24 24" fill="none" xmlns="http://www.w3.org/2000/svg">
<path d="M16.5 14.5C15.3 15.7 14 16 12.5 15C11.3 14.2 9.8 12.7 9 11.5C8 10 8.3 8.7 9.5 7.5L10.7 6.3C11 6 11 5.5 10.7 5.2L8.8 3.3C8.5 3 8 3 7.7 3.3L6.2 4.8C4.6 6.4 4.6 9 6.2 11.7C7.3 13.5 9 15.2 10.8 16.3C13.5 17.9 16.1 17.9 17.7 16.3L19.2 14.8C19.5 14.5 19.5 14 19.2 13.7L17.3 11.8C17 11.5 16.5 11.5 16.2 11.8L15 13C14.8 13.2 14.7 13.9 16.5 14.5Z" stroke="#7bdcfb" stroke-width="1.6" stroke-linejoin="round"/>
</svg>

