<svg width="24" height="24" viewBox="0 0 24 24" fill="none" xmlns="http://www.w3.org/2000/svg">
<rect x="3" y="3" width="18" height="18" rx="4" stroke="#7bdcfb" stroke-width="1.6"/>
<path d="M16.8 9.2C17.3 8.9 17.7 8.5 17.9 8C17.5 8.2 17 8.3 16.5 8.4C16 7.9 15.3 7.6 14.6 7.6C13.2 7.6 12.1 8.7 12.1 10.1C12.1 10.3 12.1 10.5 12.2 10.7C10 10.6 8.1 9.6 6.8 8.1C6.6 8.5 6.5 8.9 6.5 9.4C6.5 10.3 7 11.1 7.7 11.6C7.3 11.6 6.9 11.5 6.6 11.3C6.6 12.6 7.6 13.6 8.8 13.8C8.6 13.8 8.4 13.9 8.2 13.9C8.1 13.9 8 13.9 7.9 13.9C8.1 14.9 9 15.6 10.1 15.7C9.2 16.4 8.1 16.8 6.9 16.8C6.7 16.8 6.5 16.8 6.3 16.7C7.4 17.4 8.7 17.8 10.1 17.8C14.6 17.8 17 14 17 10.4C17 10.3 17 10.2 17 10.1C17.4 9.7 17.8 9.5 18.1 9.1L16.8 9.2Z" fill="#4ea8ff"/>
</svg>

